<svg width="32" height="32" viewBox="0 0 32 32" fill="none" xmlns="http://www.w3.org/2000/svg">
<g clip-path="url(#clip0)">
<path d="M16.5 26H7.80508C7.36229 26 7 25.6369 7 25.1932V7.80679C7 7.36306 7.36229 7 7.80508 7H16.5C16.9428 7 17.3051 7.36306 17.3051 7.80679V25.1932C17.3051 25.6369 16.9428 26 16.5 26ZM8.61017 24.4268H15.6949V8.61359H8.61017V24.4268Z" fill="black"/>
<path d="M25.1949 26H16.5C16.0572 26 15.6949 25.6369 15.6949 25.1932V7.80679C15.6949 7.36306 16.0572 7 16.5 7H25.1949C25.6377 7 26 7.36306 26 7.80679V25.1932C25.9597 25.6369 25.5974 26 25.1949 26ZM17.3051 24.4268H24.3898V8.61359H17.3051V24.4268Z" fill="black"/>
<path d="M13.7627 17.8514C13.3199 17.8514 12.9576 17.4883 12.9576 17.0446V15.9958C12.9576 15.552 13.3199 15.189 13.7627 15.189C14.2055 15.189 14.5678 15.552 14.5678 15.9958V17.0446C14.5678 17.4883 14.2055 17.8514 13.7627 17.8514Z" fill="black"/>
<path d="M19.2373 17.8514C18.7945 17.8514 18.4322 17.4883 18.4322 17.0446V15.9958C18.4322 15.552 18.7945 15.189 19.2373 15.189C19.6801 15.189 20.0424 15.552 20.0424 15.9958V17.0446C20.0021 17.4883 19.6801 17.8514 19.2373 17.8514Z" fill="black"/>
</g>
<defs>
<clipPath id="clip0">
<rect width="32" height="32" fill="white"/>
</clipPath>
</defs>
</svg>
