<svg width="64" height="59" viewBox="0 0 64 59" fill="none" xmlns="http://www.w3.org/2000/svg">
<g clip-path="url(#clip0_617_3140)">
<path d="M62.6759 53.4549H1.32414C0.662069 53.4549 0 52.7895 0 52.1241V1.33083C0 0.665414 0.662069 0 1.32414 0H62.6759C63.3379 0 64 0.665414 64 1.33083V52.1241C64 53.0113 63.3379 53.4549 62.6759 53.4549ZM2.64828 50.7932H61.3517V2.66165H2.64828V50.7932Z" fill="#294069"/>
<path d="M56.0552 25.5076H7.94487C7.2828 25.5076 6.62073 24.8421 6.62073 24.1767V7.985C6.62073 7.31959 7.2828 6.65417 7.94487 6.65417H55.8345C56.7173 6.65417 57.3793 7.31959 57.3793 7.985V23.9549C57.3793 24.8421 56.7173 25.5076 56.0552 25.5076ZM9.269 22.8459H54.5104V9.53763H9.269V22.8459Z" fill="#294069"/>
<path d="M56.0552 46.8008H7.94487C7.2828 46.8008 6.62073 46.1354 6.62073 45.4699V29.5C6.62073 28.8346 7.2828 28.1692 7.94487 28.1692H55.8345C56.4966 28.1692 57.1587 28.8346 57.1587 29.5V45.4699C57.3793 46.3572 56.7173 46.8008 56.0552 46.8008ZM9.269 44.1391H54.5104V30.8308H9.269V44.1391Z" fill="#294069"/>
<path d="M13.9034 59H8.60689C7.06207 59 5.95862 57.891 5.95862 56.3383V52.3458C5.95862 51.6804 6.62069 51.015 7.28276 51.015H15.2276C15.8897 51.015 16.5517 51.6804 16.5517 52.3458V56.3383C16.5517 57.6691 15.4483 59 13.9034 59ZM8.60689 53.4549V56.1165H13.9034V53.4549H8.60689Z" fill="#294069"/>
<path d="M55.3931 59H50.0965C48.5517 59 47.4482 57.891 47.4482 56.3383V52.3458C47.4482 51.6804 48.1103 51.015 48.7724 51.015H56.7172C57.3793 51.015 58.0413 51.6804 58.0413 52.3458V56.3383C58.0413 57.6691 56.9379 59 55.3931 59ZM50.0965 53.4549V56.1165H55.3931V53.4549H50.0965Z" fill="#294069"/>
<path d="M36.6345 17.3007H27.3655C26.7034 17.3007 26.0414 16.6353 26.0414 15.9699C26.0414 15.3045 26.7034 14.639 27.3655 14.639H36.6345C37.2966 14.639 37.9586 15.3045 37.9586 15.9699C37.9586 16.8571 37.2966 17.3007 36.6345 17.3007Z" fill="#294069"/>
<path d="M36.6345 38.8158H27.3655C26.7034 38.8158 26.0414 38.1504 26.0414 37.485C26.0414 36.8196 26.7034 36.1542 27.3655 36.1542H36.6345C37.2966 36.1542 37.9586 36.8196 37.9586 37.485C37.9586 38.1504 37.2966 38.8158 36.6345 38.8158Z" fill="#294069"/>
</g>
<defs>
<clipPath id="clip0_617_3140">
<rect width="64" height="59" fill="white"/>
</clipPath>
</defs>
</svg>
