<svg width="59" height="54" viewBox="0 0 59 54" fill="none" xmlns="http://www.w3.org/2000/svg">
<path d="M25.8125 6.63614C25.8125 2.98626 22.4938 0 18.4375 0H7.375C3.31875 0 0 2.98626 0 6.63614V41.8077C0 48.112 5.9 53.4209 12.9062 53.4209C19.9125 53.4209 25.8125 48.112 25.8125 41.8077V6.63614ZM12.9062 46.453C9.95625 46.453 7.375 44.1303 7.375 41.4759C7.375 38.8214 9.95625 36.4988 12.9062 36.4988C15.8563 36.4988 18.4375 38.8214 18.4375 41.4759C18.4375 44.4622 15.8563 46.453 12.9062 46.453ZM49.4126 24.8855L31.3438 41.1441V8.29518C34.2938 5.97253 38.7187 5.97253 41.6687 8.29518L49.4126 15.2631C52.3626 18.2494 52.3626 22.5629 49.4126 24.8855ZM59 36.4988V46.453C59 50.1029 55.6813 53.0891 51.625 53.0891H25.8125L51.625 29.8626C56.05 29.8626 59 32.8489 59 36.4988Z" fill="white"/>
</svg>
