<svg xmlns="http://www.w3.org/2000/svg" width="32" height="32" viewBox="0 0 32 32">
  <g id="Layer_1" data-name="Layer 1">
    <g>
      <polygon points="16.85 24.86 11.02 21.49 11.02 18.73 9.53 17.87 9.53 20.62 8.47 20.01 8.47 20.71 16.85 25.54 25.18 20.71 25.18 20.01 16.85 24.86" style="fill: currentColor"/>
      <polygon points="15.96 20.9 15.96 23.32 11.76 20.88 11.78 18.48 15.96 20.9" style="fill: currentColor"/>
      <polygon points="16.83 6.46 8.49 11.29 16.87 16.13 25.2 11.29 16.83 6.46" style="fill: currentColor"/>
      <path d="M8.49,12.14,6.8,13.84v.68a1.28,1.28,0,0,0,.59,1c.34.2.59,0,.59-.33a1.34,1.34,0,0,0,.6,1c.32.2.59.05.59-.33a1.29,1.29,0,0,0,.6,1c.33.2.59.05.59-.34a1.36,1.36,0,0,0,.59,1c.32.19.6.05.6-.34a1.28,1.28,0,0,0,.59,1c.34.19.59,0,.59-.34a1.34,1.34,0,0,0,.6,1c.34.19.59.05.59-.34a1.29,1.29,0,0,0,.6,1c.33.19.59.05.59-.34v-.67l1.7-1.7ZM9,15.81c0,.27-.19.4-.44.25a.94.94,0,0,1-.45-.76v-.51L9,15.3Zm.15-.59L8,14.52,9.53,13l1.21.7Zm2.25,2c0,.27-.21.4-.44.25a1,1,0,0,1-.45-.78v-.51l.89.51Zm.15-.6-1.21-.7,1.53-1.52,1.21.7Zm2.25,2a.27.27,0,0,1-.45.25A1,1,0,0,1,13,18v-.51l.89.51ZM14,18l-1.19-.7,1.52-1.52,1.21.7Z" style="fill: currentColor"/>
    </g>
  </g>
</svg>
