<svg width="68" height="81" viewBox="0 0 68 81" fill="none" xmlns="http://www.w3.org/2000/svg">
<path d="M36.9566 77.2225L15.5218 62.9531V51.6214L9.97837 47.8442V59.5955L6.28271 57.0774V59.5955L36.9566 80.1603L68.0001 59.5955V57.0774L36.9566 77.2225Z" fill="#231F20"/>
<path d="M33.6306 60.4353V70.9276L18.1088 60.4353L18.4784 50.3628L33.6306 60.4353Z" fill="#231F20"/>
<path d="M36.9566 0L6.28271 20.1451L37.3262 40.7099L68.0001 20.1451L36.9566 0Z" fill="#231F20"/>
<path d="M6.28266 23.9218L0 31.0565V33.9943C0 35.6731 1.10872 37.3518 2.21741 38.1912C3.32611 39.0306 4.43483 38.1912 4.43483 36.9321C4.43483 38.6109 5.54343 40.2896 6.65213 41.129C7.76083 41.9684 8.86954 41.129 8.86954 39.87C8.86954 41.5487 9.97826 43.2275 11.087 44.0669C12.1957 44.9062 13.3044 44.0669 13.3044 42.8078C13.3044 44.4865 14.4131 46.1653 15.5218 47.0047C16.6305 47.8441 17.7391 47.0047 17.7391 45.7456C17.7391 47.4244 18.8478 49.1031 19.9565 49.9425C21.0652 50.7819 22.1739 49.9425 22.1739 48.6834C22.1739 50.3622 23.2826 52.041 24.3913 52.8803C25.5 53.7197 26.6087 52.8803 26.6087 51.6213C26.6087 53.3 27.7174 54.9788 28.826 55.8182C29.9347 56.6575 31.0435 55.8182 31.0435 54.5591V51.6213L37.3261 44.4865L6.28266 23.9218ZM8.13048 39.4503C8.13048 40.7093 7.39126 41.129 6.65213 40.7093C5.54343 40.2896 5.17389 38.6109 5.17389 37.3518V34.8337L8.49996 36.9321V39.4503H8.13048ZM8.86954 36.9321L4.43483 33.9943L9.97831 27.699L14.413 30.6368L8.86954 36.9321ZM17 44.9062C17 46.1653 16.2609 46.585 15.5218 46.1653C14.4131 45.7456 14.0434 44.0669 14.0434 42.8078V40.7093L17.3696 42.8078V44.9062H17ZM17.7391 42.3881L13.3044 39.4503L18.8479 33.1549L23.2826 36.0928L17.7391 42.3881ZM25.8696 50.7819C25.8696 52.041 25.1305 52.4606 24.3913 52.041C23.2826 51.6213 22.9131 49.9425 22.9131 48.6834V46.585L26.2392 48.6834V50.7819H25.8696ZM26.6087 48.2637L22.1739 45.3259L27.7174 39.0306L32.1522 41.9684L26.6087 48.2637Z" fill="#231F20"/>
</svg>
