<svg id="Layer_1" data-name="Layer 1" xmlns="http://www.w3.org/2000/svg" width="34" height="34" viewBox="0 0 34 34">
  <path d="M5.23,30.38H8.31l6.06-6.75-3.06-4.11L3.46,28.26v.35a1.76,1.76,0,0,0,1.77,1.77Zm10.21-7.94,7.88-8.75a.78.78,0,0,1,1.21.06l6,8.08V5.07a1.78,1.78,0,0,0-1.77-1.78H12.5a8.74,8.74,0,0,1-9,9.42V25.9l7.33-8.14a.79.79,0,0,1,1.21,0ZM5.23,32a3.35,3.35,0,0,1-3.35-3.34V5.07A3.36,3.36,0,0,1,5.23,1.72H28.77a3.36,3.36,0,0,1,3.35,3.35V28.61A3.34,3.34,0,0,1,28.77,32Zm5.19-1.57H28.77a1.78,1.78,0,0,0,1.77-1.77V24.46l-6.7-9L10.42,30.38Zm.5-27.09H5.23A1.78,1.78,0,0,0,3.46,5.07v6.07A7.18,7.18,0,0,0,10.92,3.29Z" fill="currentColor" fill-rule="evenodd"/>
</svg>
