<svg xmlns="http://www.w3.org/2000/svg" width="50" height="50" viewBox="0 0 50 50">
  <title>insta</title>
  <g id="Layer_1" data-name="Layer 1">
    <g>
      <path d="M50,25A25,25,0,1,1,25,0,25,25,0,0,1,50,25Z" style="fill: #131313"/>
      <g>
        <path d="M25,13.67c3.85,0,4.31,0,5.84.09a7.79,7.79,0,0,1,2.68.5A4.78,4.78,0,0,1,36.29,17a7.79,7.79,0,0,1,.5,2.68c.07,1.53.09,2,.09,5.84s0,4.32-.09,5.84a7.86,7.86,0,0,1-.5,2.69,4.46,4.46,0,0,1-1.08,1.66,4.31,4.31,0,0,1-1.66,1.08,8,8,0,0,1-2.68.5c-1.53.07-2,.08-5.84.08s-4.32,0-5.84-.08a8.12,8.12,0,0,1-2.69-.5,4.78,4.78,0,0,1-2.74-2.74,8.12,8.12,0,0,1-.5-2.69c-.07-1.52-.08-2-.08-5.84s0-4.31.08-5.84a8,8,0,0,1,.5-2.68,4.31,4.31,0,0,1,1.08-1.66,4.46,4.46,0,0,1,1.66-1.08,7.86,7.86,0,0,1,2.69-.5c1.52-.07,2-.09,5.84-.09m0-2.6c-3.93,0-4.42,0-6,.09a10.54,10.54,0,0,0-3.51.67,7.42,7.42,0,0,0-4.23,4.23,10.53,10.53,0,0,0-.67,3.5c-.07,1.55-.09,2-.09,6s0,4.42.09,6A10.54,10.54,0,0,0,11.33,35,7,7,0,0,0,13,37.55a7.12,7.12,0,0,0,2.56,1.67,10.54,10.54,0,0,0,3.51.67c1.54.07,2,.09,6,.09s4.41,0,6-.09a10.53,10.53,0,0,0,3.5-.67,7.12,7.12,0,0,0,2.56-1.67A7,7,0,0,0,38.72,35a10.54,10.54,0,0,0,.67-3.51c.07-1.54.09-2,.09-6s0-4.41-.09-6a10.53,10.53,0,0,0-.67-3.5,7.42,7.42,0,0,0-4.23-4.23,10.53,10.53,0,0,0-3.5-.67c-1.55-.07-2-.09-6-.09" style="fill: #fff"/>
        <path d="M25,18.1a7.43,7.43,0,1,0,7.42,7.42A7.43,7.43,0,0,0,25,18.1m0,12.24a4.82,4.82,0,1,1,4.81-4.82A4.82,4.82,0,0,1,25,30.34" style="fill: #fff"/>
        <path d="M34.48,17.81a1.74,1.74,0,1,1-1.74-1.74,1.73,1.73,0,0,1,1.74,1.74" style="fill: #fff"/>
      </g>
    </g>
  </g>
</svg>
