<svg width="147" height="45" viewBox="0 0 147 45" fill="none" xmlns="http://www.w3.org/2000/svg">
<g clip-path="url(#clip0_505_3586)">
<path d="M44.4305 0L22.2764 45L0 0H11.6278L22.2764 22.4387L32.8027 0H44.4305Z" fill="#FF5D00"/>
<path d="M54.7119 44.7548H44.1857V0H54.7119V44.7548Z" fill="#FF5D00"/>
<path d="M98.7752 0L76.6212 45L54.3447 0H65.9725L76.6212 22.4387L87.1474 0H98.7752Z" fill="#FF5D00"/>
<path d="M109.057 44.7548H98.5304V0H109.057V44.7548Z" fill="#FF5D00"/>
<path d="M147 22.4387C147 28.8147 144.797 34.0872 140.513 38.3787C136.229 42.6703 130.966 44.7548 124.601 44.7548H110.77V0L124.601 0.122616C130.966 0.245232 136.229 2.45232 140.513 6.62125C144.797 10.9128 147 16.1853 147 22.4387Z" fill="#FF5D00"/>
</g>
<defs>
<clipPath id="clip0_505_3586">
<rect width="147" height="45" fill="white"/>
</clipPath>
</defs>
</svg>
