<svg xmlns="http://www.w3.org/2000/svg" xmlns:xlink="http://www.w3.org/1999/xlink" xml:space="preserve" version="1.1" style="shape-rendering:geometricPrecision;text-rendering:geometricPrecision;image-rendering:optimizeQuality;" viewBox="0 0 846.66 1058.325" x="0px" y="0px" fill-rule="evenodd" clip-rule="evenodd"><defs><style type="text/css">
   
    .fil0 {fill:#00a551;fill-rule:nonzero}
   
  </style></defs><g><path className="fil0" d="M112.22 781.27l81.38 0 160.29 -178.23 -80.85 -108.71 -207.64 230.85 0 9.27c0,26.45 20.7,46.26 46.82,46.82zm269.99 -209.72l208.08 -231.32c8.71,-9.7 24.29,-9.02 32.12,1.53l158.85 213.63 0 -443.16c0,-25.76 -21.06,-46.82 -46.82,-46.82l-430.1 0c11.4,137.11 -101.36,254.98 -238.94,248.89l0 348.73 193.72 -215.35c8.7,-9.7 24.28,-9.02 32.11,1.53l90.98 122.34zm-269.99 251.36c-49.34,0 -87.79,-39.76 -88.46,-88.45l0 -622.23c0,-48.57 39.89,-88.46 88.46,-88.46l622.22 0c48.63,0 88.46,39.83 88.46,88.46l0 622.22c-1.25,49.53 -38.28,87.76 -88.45,88.46 -207.41,0 -414.82,0 -622.23,0zm137.29 -41.64l484.93 0c25.7,0 46.82,-21.12 46.82,-46.82l0 -109.47 -177.04 -238.1 -354.71 394.39zm13.16 -715.86l-150.45 0c-25.81,0 -46.82,21.01 -46.82,46.82l0 160.43c114.12,5.83 208.77,-93.48 197.27,-207.25z"/></g><text x="0" y="861.66" fill="#00a551" font-size="5px" font-weight="bold" font-family="'Helvetica Neue', Helvetica, Arial-Unicode, Arial, Sans-serif">Created by brian saputra</text><text x="0" y="866.66" fill="#ffffff" font-size="5px" font-weight="bold" font-family="'Helvetica Neue', Helvetica, Arial-Unicode, Arial, Sans-serif">from the Noun Project</text></svg>