<svg xmlns="http://www.w3.org/2000/svg" width="50" height="50" viewBox="0 0 50 50">
  <title>phone_1</title>
  <g id="Layer_1" data-name="Layer 1">
    <path d="M25,0A25.08,25.08,0,0,0,0,24.83,24.65,24.65,0,0,0,7.22,42.55,24.75,24.75,0,0,0,24.83,50H25A25,25,0,1,0,25,0ZM37.11,33.33l-1,1.06-.06,0c-1.83,1.84-3.39,2.28-5.83,1.56a20.56,20.56,0,0,1-6.89-3.83,39.17,39.17,0,0,1-8.17-8.73c-2-3.33-2.72-6.83.17-9.72l.05-.05,1.06-1.06a2.08,2.08,0,0,1,2.89,0l3.28,3.28a2.1,2.1,0,0,1,0,2.89l-1.95,1.94.06.06a29.34,29.34,0,0,0,8.27,8.27l.06.06,1.94-1.94a2.08,2.08,0,0,1,2.89,0l3.28,3.27A2,2,0,0,1,37.11,33.33Z"/>
  </g>
</svg>
