<svg xmlns="http://www.w3.org/2000/svg" width="50" height="50" viewBox="0 0 50 50">
  <title>pinterest</title>
  <g id="Layer_1" data-name="Layer 1">
    <path d="M0,25A24.47,24.47,0,0,1,7.52,7.23,24.58,24.58,0,0,1,25,0Q35.94.2,42.92,7.47A24.73,24.73,0,0,1,50,25a24.54,24.54,0,0,1-7.52,17.73A24.51,24.51,0,0,1,25,50a23.78,23.78,0,0,1-7-1.08,26.67,26.67,0,0,0,1.36-2.44,41.39,41.39,0,0,0,2-6.25c.19-.84.49-2,.88-3.42A6.26,6.26,0,0,0,24.51,39a10.19,10.19,0,0,0,9.28-.39,15.39,15.39,0,0,0,7-9.08,18.49,18.49,0,0,0-.44-12,14.1,14.1,0,0,0-7.86-8A21.74,21.74,0,0,0,18.66,10a15.59,15.59,0,0,0-9.38,8.55A19.58,19.58,0,0,0,8.45,23a21.17,21.17,0,0,0,.14,4.3,8.53,8.53,0,0,0,1.47,3.76,7.55,7.55,0,0,0,3.13,2.54.82.82,0,0,0,.78,0q.39-.2.78-1.56A4.73,4.73,0,0,0,15,30.18a7.23,7.23,0,0,0-.39-.68,9.56,9.56,0,0,1-1.36-7,12.2,12.2,0,0,1,3-6.2,13.62,13.62,0,0,1,8.45-3.52A11.19,11.19,0,0,1,33,15.44a10.61,10.61,0,0,1,2.39,5.17,16,16,0,0,1,0,5.81,17.46,17.46,0,0,1-1.91,5.23q-2.45,3.81-5.76,3.9A4.28,4.28,0,0,1,24.56,34a3.38,3.38,0,0,1-.73-3.27q.2-1.08,1.17-4.2a21.91,21.91,0,0,0,1.07-4.69q-.29-3.7-3.42-3.81A4.64,4.64,0,0,0,19,20.27a8.65,8.65,0,0,0-1.27,4.34,11.44,11.44,0,0,0,.88,3.91q-1.08,4.39-1.66,7-.19.68-1.08,4.2a30.64,30.64,0,0,0-1,5.37v2.73A25.76,25.76,0,0,1,4,38.53,24.22,24.22,0,0,1,0,25Z" style="fill: #131313"/>
  </g>
</svg>
