<svg width="577" height="554" viewBox="0 0 577 554" fill="none" xmlns="http://www.w3.org/2000/svg">
<path opacity="0.1" d="M75.9111 443.577C47.396 408.433 33.1384 390.861 24.2124 374.166C-15.6219 299.663 -3.79587 208.092 53.6593 146.154C66.5337 132.275 84.7877 118.901 121.296 92.1545L165.693 59.628C192.172 40.2287 205.411 30.5291 218.433 23.684C279.487 -8.40929 352.843 -6.41699 412.065 28.9429C424.696 36.4848 437.39 46.8887 462.776 67.6966C500.281 98.436 519.033 113.806 531.425 128.893C590.449 200.755 591.508 304.009 533.972 377.068C521.893 392.406 503.46 408.158 466.595 439.661L424.754 475.416C391.075 504.196 374.236 518.585 358.044 527.841C285.849 569.11 195.56 560.869 132.028 507.213C117.779 495.179 103.823 477.978 75.9111 443.577Z" fill="#D6CDBD"/>
</svg>
