<svg xmlns="http://www.w3.org/2000/svg" width="660.28" height="385.76" viewBox="0 0 660.28 385.76">
  <title>why</title>
  <g>
    <path d="M301.1,344.42C257.67,328.7,232.86,281,248.58,237.59s65.83-59.51,109.26-43.8,65.55,64.66,49.83,108.09S344.53,360.14,301.1,344.42Z" fill="#ff6977"/>
    <path d="M362.67,338c-41.88,19.62-93.2,3.43-112.83-38.46s4.47-88.76,46.36-108.38,92.19-.63,111.82,41.25S404.56,318.41,362.67,338Z" fill="#26e9e0"/>
    <path d="M401.6,298.61c-15.33,42.34-61.8,66.52-104.14,51.2s-58-64.18-42.7-106.52,63-63.89,105.37-48.57S416.92,256.27,401.6,298.61Z" fill="#2e3191"/>
    <path d="M574.64,274.06c8.92,25.86-5.46,52.16-31.32,61.09s-54.68-3.54-63.6-29.4,1.93-56.24,27.79-65.16S565.71,248.2,574.64,274.06Z" fill="#00a551"/>
    <path d="M198.06,293.41C190,319.55,167,335.66,140.88,327.58a49.54,49.54,0,0,1-32.69-62c8.08-26.14,34.94-37.9,61.07-29.82S206.14,267.28,198.06,293.41Z" fill="#ff6977"/>
    <path d="M206.13,85.4c7.21,26.39-11.22,54.42-37.61,61.64a49.53,49.53,0,0,1-60.84-34.72c-7.22-26.39,9.12-50.74,35.5-57.95S198.91,59,206.13,85.4Z" fill="#ffc000"/>
    <path d="M382.52,57.92A49.52,49.52,0,0,1,333,107.45c-27.36,0-52.53-22.17-52.53-49.53S305.63,11.39,333,11.39,382.52,30.57,382.52,57.92Z" fill="#26e9e0"/>
    <ellipse cx="518.7" cy="109.03" rx="47.53" ry="51.53" transform="translate(74.83 398.71) rotate(-45)" fill="#2e3191"/>
    <g>
      <path d="M288,272.59l2.58-14.1h5.37L291.13,281h-5.62l-3-12.82L279.55,281h-5.61l-4.78-22.49h5.38l2.58,14.1,3.09-14.1h4.6Z" fill="#fff"/>
      <path d="M302.86,266.06a5.71,5.71,0,0,1,8.43-.46,7.32,7.32,0,0,1,1.44,4.83V281h-5.22V270.55a3,3,0,0,0-.54-1.95,2.31,2.31,0,0,0-1.84-.63,2.51,2.51,0,0,0-2.27,1v12h-5.2V257.26h5.2Z" fill="#fff"/>
      <path d="M322.3,273.69l2.78-9.42h5.57l-6.8,19.5-.3.71a5.17,5.17,0,0,1-5.12,3.24,8.36,8.36,0,0,1-2.15-.3v-3.71H317a3.53,3.53,0,0,0,1.67-.32,1.89,1.89,0,0,0,.86-1.13l.42-1.12-5.81-16.87h5.56Z" fill="#fff"/>
      <path d="M349.83,279.17a5.36,5.36,0,0,1-4.46,2.11,5.27,5.27,0,0,1-4.16-1.59,6.75,6.75,0,0,1-1.41-4.6V264.27H345v10.85a1.87,1.87,0,0,0,2.08,2.15,2.72,2.72,0,0,0,2.55-1.28V264.27h5.24V281H350Z" fill="#fff"/>
      <path d="M366.46,276.28a1.19,1.19,0,0,0-.69-1.06,10.69,10.69,0,0,0-2.64-.84,12.16,12.16,0,0,1-3.22-1.13,5.49,5.49,0,0,1-1.93-1.71,4.08,4.08,0,0,1-.66-2.3,4.61,4.61,0,0,1,1.9-3.79,7.84,7.84,0,0,1,5-1.49,8.66,8.66,0,0,1,5.31,1.5,4.68,4.68,0,0,1,2,3.94h-5.22c0-1.34-.7-2-2.11-2a2.12,2.12,0,0,0-1.38.45,1.43,1.43,0,0,0-.55,1.14,1.29,1.29,0,0,0,.68,1.13,6.66,6.66,0,0,0,2.16.71,17.51,17.51,0,0,1,2.62.66q3.77,1.29,3.77,4.65a4.39,4.39,0,0,1-2,3.72,8.91,8.91,0,0,1-5.26,1.43,9,9,0,0,1-3.83-.77,6.28,6.28,0,0,1-2.62-2.1,4.71,4.71,0,0,1-.94-2.79h4.86a2,2,0,0,0,.77,1.69,3.23,3.23,0,0,0,1.9.53,2.5,2.5,0,0,0,1.6-.43A1.39,1.39,0,0,0,366.46,276.28Z" fill="#fff"/>
      <path d="M377.76,273.86a10,10,0,0,1,.51-3.56,5.58,5.58,0,0,1,1.65-2.26,10.51,10.51,0,0,0,1.74-1.76,2.83,2.83,0,0,0,.6-1.75c0-1.55-.67-2.33-2-2.33a1.87,1.87,0,0,0-1.5.68,2.9,2.9,0,0,0-.6,1.84h-5.22a6.22,6.22,0,0,1,1.95-4.81,7.72,7.72,0,0,1,5.37-1.72,8.05,8.05,0,0,1,5.33,1.59,5.58,5.58,0,0,1,1.9,4.52,5.27,5.27,0,0,1-.51,2.33,7.93,7.93,0,0,1-1.64,2.15l-1.78,1.65a4.25,4.25,0,0,0-1.05,1.49,6.08,6.08,0,0,0-.32,1.94Zm-.63,4.69a2.38,2.38,0,0,1,.83-1.87,3.24,3.24,0,0,1,4.12,0,2.37,2.37,0,0,1,.82,1.87,2.41,2.41,0,0,1-.82,1.88,3.27,3.27,0,0,1-4.12,0A2.41,2.41,0,0,1,377.13,278.55Z" fill="#fff"/>
    </g>
    <g>
      <path d="M490,363.69h-5.34v3.62h6.27v2.23h-9.05V356h9v2.25h-6.25v3.22H490Z" fill="#00a551"/>
      <path d="M498.17,369.54a2.66,2.66,0,0,1-.27-.9,3.24,3.24,0,0,1-2.54,1.09,3.54,3.54,0,0,1-2.44-.85,2.74,2.74,0,0,1-1-2.16,2.84,2.84,0,0,1,1.18-2.45,5.94,5.94,0,0,1,3.42-.86h1.24v-.57a1.66,1.66,0,0,0-.36-1.12,1.44,1.44,0,0,0-1.13-.41,1.56,1.56,0,0,0-1.06.32,1.1,1.1,0,0,0-.39.89h-2.68a2.67,2.67,0,0,1,.54-1.61,3.55,3.55,0,0,1,1.52-1.17,5.58,5.58,0,0,1,2.21-.42,4.4,4.4,0,0,1,2.95.93,3.29,3.29,0,0,1,1.09,2.62v4.35a4.75,4.75,0,0,0,.39,2.17v.15ZM496,367.68a2.37,2.37,0,0,0,1.09-.26,1.84,1.84,0,0,0,.75-.71V365h-1c-1.34,0-2,.46-2.14,1.39v.16a1.07,1.07,0,0,0,.35.82A1.37,1.37,0,0,0,496,367.68Z" fill="#00a551"/>
      <path d="M508,366.77a.84.84,0,0,0-.49-.77,5.41,5.41,0,0,0-1.56-.51c-2.39-.5-3.58-1.52-3.58-3a2.75,2.75,0,0,1,1.11-2.23,4.45,4.45,0,0,1,2.9-.9,4.79,4.79,0,0,1,3,.9,2.83,2.83,0,0,1,1.15,2.34h-2.68a1.29,1.29,0,0,0-.37-.95,1.95,1.95,0,0,0-2.21-.07,1,1,0,0,0-.37.78.85.85,0,0,0,.42.72,4.36,4.36,0,0,0,1.43.47,10.79,10.79,0,0,1,1.68.45,2.78,2.78,0,0,1,2.13,2.7,2.62,2.62,0,0,1-1.18,2.22,5.06,5.06,0,0,1-3,.85,5.3,5.3,0,0,1-2.24-.45,3.73,3.73,0,0,1-1.54-1.23,2.91,2.91,0,0,1-.56-1.7h2.55a1.39,1.39,0,0,0,.53,1.1,2.08,2.08,0,0,0,1.31.38,2,2,0,0,0,1.17-.29A.92.92,0,0,0,508,366.77Z" fill="#00a551"/>
      <path d="M516.05,365.75l1.86-6.24h2.87l-4,11.59-.23.53a3,3,0,0,1-3,2,4.14,4.14,0,0,1-1.19-.18v-2h.41a2.25,2.25,0,0,0,1.13-.23,1.53,1.53,0,0,0,.59-.77l.32-.83-3.52-10.06h2.89Z" fill="#00a551"/>
      <path d="M535.62,364.62a6,6,0,0,1-1,3.76,3.42,3.42,0,0,1-2.88,1.35,3.13,3.13,0,0,1-2.6-1.25l-.13,1.06h-2.41V355.29h2.68v5.12a3.05,3.05,0,0,1,2.44-1.09,3.42,3.42,0,0,1,2.88,1.35,6.07,6.07,0,0,1,1,3.8Zm-2.68-.2a4,4,0,0,0-.48-2.22,1.65,1.65,0,0,0-1.44-.7,1.78,1.78,0,0,0-1.77,1.05v4a1.8,1.8,0,0,0,1.79,1.06,1.65,1.65,0,0,0,1.7-1.28A6.59,6.59,0,0,0,532.94,364.42Z" fill="#00a551"/>
      <path d="M536.85,364.43a5.88,5.88,0,0,1,.58-2.66,4.2,4.2,0,0,1,1.65-1.81,4.81,4.81,0,0,1,2.51-.64,4.61,4.61,0,0,1,3.32,1.24,5,5,0,0,1,1.43,3.38l0,.69a5.23,5.23,0,0,1-1.29,3.7,5,5,0,0,1-6.92,0,5.32,5.32,0,0,1-1.3-3.79Zm2.68.19a3.73,3.73,0,0,0,.54,2.19,1.93,1.93,0,0,0,3.06,0,4.07,4.07,0,0,0,.55-2.39,3.7,3.7,0,0,0-.55-2.18,1.78,1.78,0,0,0-1.54-.77,1.76,1.76,0,0,0-1.52.77A4.15,4.15,0,0,0,539.53,364.62Z" fill="#00a551"/>
      <path d="M547.6,364.43a6,6,0,0,1,.57-2.66,4.22,4.22,0,0,1,1.66-1.81,4.78,4.78,0,0,1,2.51-.64,4.59,4.59,0,0,1,3.31,1.24,5,5,0,0,1,1.44,3.38v.69a5.23,5.23,0,0,1-1.29,3.7,5,5,0,0,1-6.92,0,5.36,5.36,0,0,1-1.29-3.79Zm2.68.19a3.81,3.81,0,0,0,.53,2.19,1.78,1.78,0,0,0,1.54.76,1.8,1.8,0,0,0,1.53-.75,4.16,4.16,0,0,0,.54-2.39,3.78,3.78,0,0,0-.54-2.18,1.8,1.8,0,0,0-1.54-.77,1.77,1.77,0,0,0-1.53.77A4.24,4.24,0,0,0,550.28,364.62Z" fill="#00a551"/>
      <path d="M562.4,365.52l-1,1v3.06h-2.68V355.29h2.68v7.9l.52-.67,2.57-3h3.22l-3.63,4.18,3.94,5.85H565Z" fill="#00a551"/>
      <path d="M568.89,356.91a1.31,1.31,0,0,1,.4-1,1.52,1.52,0,0,1,1.1-.39,1.5,1.5,0,0,1,1.09.39,1.28,1.28,0,0,1,.41,1,1.33,1.33,0,0,1-.41,1,1.53,1.53,0,0,1-1.09.39,1.52,1.52,0,0,1-1.09-.39A1.29,1.29,0,0,1,568.89,356.91Zm2.84,12.63H569v-10h2.69Z" fill="#00a551"/>
      <path d="M576.41,359.51l.08,1.16a3.51,3.51,0,0,1,2.89-1.35,2.89,2.89,0,0,1,2.37.94,4.35,4.35,0,0,1,.8,2.8v6.48h-2.68v-6.42a1.71,1.71,0,0,0-.37-1.23,1.65,1.65,0,0,0-1.23-.39,1.83,1.83,0,0,0-1.7,1v7.07h-2.68v-10Z" fill="#00a551"/>
      <path d="M584.19,364.45a5.9,5.9,0,0,1,1.1-3.72,3.59,3.59,0,0,1,3-1.41,3.13,3.13,0,0,1,2.57,1.13l.11-.94h2.43v9.7a4.27,4.27,0,0,1-.6,2.29,3.87,3.87,0,0,1-1.68,1.49,5.94,5.94,0,0,1-2.54.51,5.6,5.6,0,0,1-2.16-.44,3.89,3.89,0,0,1-1.58-1.14l1.18-1.63a3.18,3.18,0,0,0,2.44,1.12,2.31,2.31,0,0,0,1.66-.57,2.16,2.16,0,0,0,.59-1.62v-.54a3.1,3.1,0,0,1-2.44,1.05,3.55,3.55,0,0,1-2.93-1.42,5.9,5.9,0,0,1-1.12-3.75Zm2.69.2a3.68,3.68,0,0,0,.54,2.14,1.75,1.75,0,0,0,1.51.78,1.87,1.87,0,0,0,1.75-.92v-4.23a1.87,1.87,0,0,0-1.74-.92,1.74,1.74,0,0,0-1.51.79A4.11,4.11,0,0,0,586.88,364.65Z" fill="#00a551"/>
    </g>
    <g>
      <path d="M38.69,174.41H33.35v5.52H30.57V166.42h8.79v2.25h-6v3.49h5.34Z" fill="#ffc000"/>
      <path d="M46.2,172.4a7.13,7.13,0,0,0-1-.07,2,2,0,0,0-2,1v6.57H40.56v-10h2.53l.08,1.2a2.48,2.48,0,0,1,2.23-1.39,2.84,2.84,0,0,1,.84.12Z" fill="#ffc000"/>
      <path d="M47.47,167.29a1.31,1.31,0,0,1,.4-1,1.75,1.75,0,0,1,2.2,0,1.32,1.32,0,0,1,.41,1,1.3,1.3,0,0,1-.42,1,1.5,1.5,0,0,1-1.09.39,1.53,1.53,0,0,1-1.09-.39A1.33,1.33,0,0,1,47.47,167.29Zm2.85,12.64H47.63v-10h2.69Z" fill="#ffc000"/>
      <path d="M57.15,180.11a5,5,0,0,1-3.6-1.35,4.83,4.83,0,0,1-1.38-3.61v-.26a6,6,0,0,1,.58-2.7,4.24,4.24,0,0,1,1.66-1.84,4.64,4.64,0,0,1,2.44-.65,4.19,4.19,0,0,1,3.24,1.3,5.3,5.3,0,0,1,1.19,3.69v1.09h-6.4a2.5,2.5,0,0,0,.79,1.58,2.38,2.38,0,0,0,1.65.59,2.91,2.91,0,0,0,2.43-1.12l1.31,1.47a4,4,0,0,1-1.63,1.34A5.5,5.5,0,0,1,57.15,180.11Zm-.31-8.24a1.67,1.67,0,0,0-1.29.54,2.77,2.77,0,0,0-.64,1.54h3.73v-.21a2,2,0,0,0-.48-1.39A1.75,1.75,0,0,0,56.84,171.87Z" fill="#ffc000"/>
      <path d="M65.27,169.89l.08,1.16a3.5,3.5,0,0,1,2.88-1.35,2.93,2.93,0,0,1,2.38.94,4.43,4.43,0,0,1,.8,2.8v6.49H68.73v-6.42a1.74,1.74,0,0,0-.38-1.24,1.62,1.62,0,0,0-1.23-.39,1.87,1.87,0,0,0-1.7,1v7.08H62.74v-10Z" fill="#ffc000"/>
      <path d="M73,174.83a6,6,0,0,1,1-3.73A3.44,3.44,0,0,1,77,169.7a3.1,3.1,0,0,1,2.43,1.1v-5.12h2.69v14.25H79.64l-.12-1.07a3.15,3.15,0,0,1-2.58,1.25,3.41,3.41,0,0,1-2.85-1.39A6.29,6.29,0,0,1,73,174.83Zm2.68.2a4,4,0,0,0,.49,2.17,1.61,1.61,0,0,0,1.43.75,1.8,1.8,0,0,0,1.76-1v-4a1.78,1.78,0,0,0-1.74-1.05C76.35,171.88,75.7,172.93,75.7,175Z" fill="#ffc000"/>
      <path d="M87,179.93H84.28V165.68H87Z" fill="#ffc000"/>
      <path d="M92.93,176.13l1.86-6.24h2.87l-4,11.6-.23.52a3,3,0,0,1-3,2,4.5,4.5,0,0,1-1.19-.17v-2h.41a2.14,2.14,0,0,0,1.13-.23,1.49,1.49,0,0,0,.59-.77l.32-.82-3.52-10.07h2.89Z" fill="#ffc000"/>
      <path d="M109.27,179.93a2.66,2.66,0,0,1-.27-.9,3.26,3.26,0,0,1-2.53,1.08,3.57,3.57,0,0,1-2.45-.85,2.74,2.74,0,0,1-1-2.15,2.85,2.85,0,0,1,1.18-2.45,5.79,5.79,0,0,1,3.42-.86h1.24v-.58a1.65,1.65,0,0,0-.36-1.11,1.4,1.4,0,0,0-1.13-.42,1.63,1.63,0,0,0-1.06.32,1.1,1.1,0,0,0-.38.89h-2.69a2.69,2.69,0,0,1,.54-1.61,3.61,3.61,0,0,1,1.52-1.16,5.45,5.45,0,0,1,2.21-.43,4.35,4.35,0,0,1,2.95.94,3.27,3.27,0,0,1,1.09,2.62v4.35a4.71,4.71,0,0,0,.4,2.16v.16Zm-2.22-1.87a2.34,2.34,0,0,0,1.09-.26,1.72,1.72,0,0,0,.75-.71v-1.73h-1c-1.35,0-2.06.47-2.15,1.4v.15a1.09,1.09,0,0,0,.35.83A1.37,1.37,0,0,0,107.05,178.06Z" fill="#ffc000"/>
      <path d="M116.11,169.89l.08,1.16a3.5,3.5,0,0,1,2.88-1.35,2.93,2.93,0,0,1,2.38.94,4.43,4.43,0,0,1,.8,2.8v6.49h-2.68v-6.42a1.74,1.74,0,0,0-.38-1.24,1.62,1.62,0,0,0-1.23-.39,1.87,1.87,0,0,0-1.7,1v7.08h-2.68v-10Z" fill="#ffc000"/>
      <path d="M123.86,174.83a6,6,0,0,1,1-3.73,3.44,3.44,0,0,1,2.88-1.4,3.1,3.1,0,0,1,2.43,1.1v-5.12h2.69v14.25h-2.43l-.13-1.07a3.11,3.11,0,0,1-2.57,1.25,3.41,3.41,0,0,1-2.85-1.39A6.29,6.29,0,0,1,123.86,174.83Zm2.68.2a4,4,0,0,0,.49,2.17,1.61,1.61,0,0,0,1.43.75,1.8,1.8,0,0,0,1.76-1v-4a1.78,1.78,0,0,0-1.74-1.05C127.19,171.88,126.54,172.93,126.54,175Z" fill="#ffc000"/>
      <path d="M145.36,172.4a7.24,7.24,0,0,0-1-.07,2,2,0,0,0-2,1v6.57h-2.68v-10h2.53l.07,1.2a2.51,2.51,0,0,1,2.24-1.39,2.78,2.78,0,0,1,.83.12Z" fill="#ffc000"/>
      <path d="M151.09,180.11a5,5,0,0,1-3.6-1.35,4.83,4.83,0,0,1-1.38-3.61v-.26a6,6,0,0,1,.58-2.7,4.24,4.24,0,0,1,1.66-1.84,4.64,4.64,0,0,1,2.44-.65A4.2,4.2,0,0,1,154,171a5.34,5.34,0,0,1,1.18,3.69v1.09h-6.39a2.44,2.44,0,0,0,.78,1.58,2.41,2.41,0,0,0,1.66.59,2.89,2.89,0,0,0,2.42-1.12L155,178.3a4,4,0,0,1-1.63,1.34A5.47,5.47,0,0,1,151.09,180.11Zm-.31-8.24a1.67,1.67,0,0,0-1.29.54,2.84,2.84,0,0,0-.64,1.54h3.73v-.21a2,2,0,0,0-.48-1.39A1.75,1.75,0,0,0,150.78,171.87Z" fill="#ffc000"/>
      <path d="M159.57,179.93h-2.69V165.68h2.69Z" fill="#ffc000"/>
      <path d="M161.76,167.29a1.31,1.31,0,0,1,.4-1,1.52,1.52,0,0,1,1.1-.39,1.54,1.54,0,0,1,1.1.39,1.32,1.32,0,0,1,.41,1,1.3,1.3,0,0,1-.42,1,1.52,1.52,0,0,1-1.09.39,1.53,1.53,0,0,1-1.09-.39A1.33,1.33,0,0,1,161.76,167.29Zm2.85,12.64h-2.69v-10h2.69Z" fill="#ffc000"/>
      <path d="M172.63,179.93a3.2,3.2,0,0,1-.27-.9,3.25,3.25,0,0,1-2.53,1.08,3.54,3.54,0,0,1-2.44-.85,2.74,2.74,0,0,1-1-2.15,2.83,2.83,0,0,1,1.18-2.45,5.79,5.79,0,0,1,3.42-.86h1.23v-.58a1.65,1.65,0,0,0-.36-1.11,1.38,1.38,0,0,0-1.12-.42,1.62,1.62,0,0,0-1.06.32,1.11,1.11,0,0,0-.39.89h-2.68a2.69,2.69,0,0,1,.54-1.61,3.55,3.55,0,0,1,1.52-1.16,5.38,5.38,0,0,1,2.21-.43,4.33,4.33,0,0,1,2.94.94,3.24,3.24,0,0,1,1.09,2.62v4.35a4.85,4.85,0,0,0,.4,2.16v.16Zm-2.22-1.87a2.38,2.38,0,0,0,1.1-.26,1.75,1.75,0,0,0,.74-.71v-1.73h-1c-1.34,0-2.06.47-2.14,1.4v.15a1.09,1.09,0,0,0,.35.83A1.36,1.36,0,0,0,170.41,178.06Z" fill="#ffc000"/>
      <path d="M186.05,175a6.11,6.11,0,0,1-1,3.76,3.42,3.42,0,0,1-2.88,1.35,3.12,3.12,0,0,1-2.61-1.25l-.12,1.07H177V165.68h2.68v5.11a3.07,3.07,0,0,1,2.44-1.09,3.42,3.42,0,0,1,2.88,1.35,6.07,6.07,0,0,1,1.05,3.8Zm-2.68-.19a4,4,0,0,0-.49-2.22,1.63,1.63,0,0,0-1.44-.71,1.77,1.77,0,0,0-1.76,1.05v4a1.79,1.79,0,0,0,1.78,1.06,1.66,1.66,0,0,0,1.71-1.28A6.56,6.56,0,0,0,183.37,174.81Z" fill="#ffc000"/>
      <path d="M190.53,179.93h-2.69V165.68h2.69Z" fill="#ffc000"/>
      <path d="M197.36,180.11a4.94,4.94,0,0,1-3.6-1.35,4.84,4.84,0,0,1-1.39-3.61v-.26a6,6,0,0,1,.59-2.7,4.29,4.29,0,0,1,1.65-1.84,4.67,4.67,0,0,1,2.45-.65,4.19,4.19,0,0,1,3.24,1.3,5.29,5.29,0,0,1,1.18,3.69v1.09h-6.39a2.5,2.5,0,0,0,.79,1.58,2.37,2.37,0,0,0,1.65.59,2.89,2.89,0,0,0,2.42-1.12l1.32,1.47a4.07,4.07,0,0,1-1.63,1.34A5.5,5.5,0,0,1,197.36,180.11Zm-.31-8.24a1.67,1.67,0,0,0-1.29.54,2.7,2.7,0,0,0-.64,1.54h3.73v-.21a2,2,0,0,0-.48-1.39A1.75,1.75,0,0,0,197.05,171.87Z" fill="#ffc000"/>
    </g>
    <g>
      <path d="M487.85,178h-5.34v3.62h6.27v2.23h-9V170.3h9v2.26h-6.25v3.22h5.34Z" fill="#2e3191"/>
      <path d="M494.06,176.77l1.69-3h2.87l-2.86,4.92,3,5.12h-2.88l-1.79-3.15-1.78,3.15H489.4l3-5.12-2.85-4.92h2.88Z" fill="#2e3191"/>
      <path d="M503.89,181.84a1.77,1.77,0,0,0,1.21-.41,1.44,1.44,0,0,0,.48-1.09h2.52a3.44,3.44,0,0,1-.56,1.87,3.57,3.57,0,0,1-1.5,1.32,4.69,4.69,0,0,1-2.1.47,4.35,4.35,0,0,1-3.39-1.37,5.4,5.4,0,0,1-1.25-3.78v-.18a5.32,5.32,0,0,1,1.24-3.7,4.3,4.3,0,0,1,3.38-1.38,4.19,4.19,0,0,1,3,1.07,3.8,3.8,0,0,1,1.16,2.85h-2.52a1.81,1.81,0,0,0-.48-1.27,1.6,1.6,0,0,0-1.22-.49,1.63,1.63,0,0,0-1.42.68,4,4,0,0,0-.48,2.22v.28a4,4,0,0,0,.48,2.23A1.62,1.62,0,0,0,503.89,181.84Z" fill="#2e3191"/>
      <path d="M514.25,184a4.93,4.93,0,0,1-3.6-1.36,4.81,4.81,0,0,1-1.38-3.61v-.26a6,6,0,0,1,.58-2.7,4.24,4.24,0,0,1,1.66-1.84,4.63,4.63,0,0,1,2.44-.64,4.15,4.15,0,0,1,3.24,1.3,5.25,5.25,0,0,1,1.19,3.68v1.09H512a2.48,2.48,0,0,0,.79,1.58,2.34,2.34,0,0,0,1.65.6,2.91,2.91,0,0,0,2.43-1.13l1.31,1.48a4,4,0,0,1-1.63,1.33A5.35,5.35,0,0,1,514.25,184Zm-.31-8.25a1.67,1.67,0,0,0-1.29.54,2.8,2.8,0,0,0-.64,1.55h3.73v-.22a2,2,0,0,0-.48-1.38A1.72,1.72,0,0,0,513.94,175.75Z" fill="#2e3191"/>
      <path d="M528.93,178.89a6,6,0,0,1-1,3.71A3.38,3.38,0,0,1,525,184a3.13,3.13,0,0,1-2.46-1.06v4.73H519.9v-13.9h2.48l.1,1a3.14,3.14,0,0,1,2.54-1.17A3.39,3.39,0,0,1,527.9,175a6.18,6.18,0,0,1,1,3.79Zm-2.68-.2a4,4,0,0,0-.49-2.16,1.62,1.62,0,0,0-1.45-.76,1.75,1.75,0,0,0-1.73,1v4.11a1.79,1.79,0,0,0,1.75,1Q526.25,181.84,526.25,178.69Z" fill="#2e3191"/>
      <path d="M533.81,171.3v2.47h1.71v2h-1.71v5a1.22,1.22,0,0,0,.21.8,1.06,1.06,0,0,0,.81.24,3.74,3.74,0,0,0,.79-.07v2A5.48,5.48,0,0,1,534,184a2.56,2.56,0,0,1-2.88-2.85v-5.41h-1.46v-2h1.46V171.3Z" fill="#2e3191"/>
      <path d="M537,171.18a1.32,1.32,0,0,1,.4-1,1.52,1.52,0,0,1,1.1-.39,1.5,1.5,0,0,1,1.09.39,1.29,1.29,0,0,1,.41,1,1.34,1.34,0,0,1-.41,1,1.53,1.53,0,0,1-1.09.39,1.52,1.52,0,0,1-1.09-.39A1.31,1.31,0,0,1,537,171.18Zm2.84,12.63h-2.69v-10h2.69Z" fill="#2e3191"/>
      <path d="M541.63,178.7a6,6,0,0,1,.58-2.66,4.1,4.1,0,0,1,1.66-1.81,4.78,4.78,0,0,1,2.51-.64,4.56,4.56,0,0,1,3.31,1.24,5,5,0,0,1,1.44,3.38v.68a5.25,5.25,0,0,1-1.29,3.71,5,5,0,0,1-6.92,0,5.32,5.32,0,0,1-1.3-3.78Zm2.68.19a3.77,3.77,0,0,0,.54,2.19,1.8,1.8,0,0,0,1.54.76,1.77,1.77,0,0,0,1.52-.75,4.09,4.09,0,0,0,.55-2.4,3.66,3.66,0,0,0-.55-2.17,1.77,1.77,0,0,0-1.53-.77,1.74,1.74,0,0,0-1.53.77A4.15,4.15,0,0,0,544.31,178.89Z" fill="#2e3191"/>
      <path d="M555.26,173.77l.09,1.16a3.51,3.51,0,0,1,2.88-1.34,2.93,2.93,0,0,1,2.38.93,4.38,4.38,0,0,1,.79,2.81v6.48h-2.68v-6.42a1.74,1.74,0,0,0-.37-1.24,1.68,1.68,0,0,0-1.23-.38,1.85,1.85,0,0,0-1.7,1v7.08h-2.68v-10Z" fill="#2e3191"/>
      <path d="M569.25,183.81a1.41,1.41,0,1,0-2.8.19,3.55,3.55,0,0,1-2.44-.86,2.72,2.72,0,0,1-1-2.15,2.84,2.84,0,0,1,1.18-2.45,5.79,5.79,0,0,1,3.42-.86h1.23v-.58a1.7,1.7,0,0,0-.35-1.11,1.41,1.41,0,0,0-1.13-.42,1.56,1.56,0,0,0-1.06.33,1.08,1.08,0,0,0-.39.89h-2.68a2.72,2.72,0,0,1,.54-1.62,3.55,3.55,0,0,1,1.52-1.16,5.58,5.58,0,0,1,2.21-.42,4.36,4.36,0,0,1,2.94.93,3.24,3.24,0,0,1,1.09,2.62v4.35a4.82,4.82,0,0,0,.4,2.16v.16ZM567,182a2.26,2.26,0,0,0,1.09-.27,1.64,1.64,0,0,0,.74-.71v-1.72h-1c-1.34,0-2.06.46-2.14,1.39v.16a1.07,1.07,0,0,0,.35.82A1.37,1.37,0,0,0,567,182Z" fill="#2e3191"/>
      <path d="M576.45,183.81h-2.69V169.56h2.69Z" fill="#2e3191"/>
      <path d="M583,178.7A6,6,0,0,1,584,175a3.44,3.44,0,0,1,2.89-1.37,3.1,3.1,0,0,1,2.57,1.23l.17-1H592v13.9h-2.69V183A3.09,3.09,0,0,1,586.9,184a3.41,3.41,0,0,1-2.86-1.4A6.26,6.26,0,0,1,583,178.7Zm2.68.19a3.9,3.9,0,0,0,.51,2.19,1.63,1.63,0,0,0,1.42.76,1.8,1.8,0,0,0,1.75-1V176.7a1.79,1.79,0,0,0-1.73-.95,1.62,1.62,0,0,0-1.43.75A4.34,4.34,0,0,0,585.65,178.89Z" fill="#2e3191"/>
      <path d="M600.14,182.79a3.38,3.38,0,0,1-2.75,1.21,3.15,3.15,0,0,1-2.46-.93,3.94,3.94,0,0,1-.87-2.72v-6.58h2.68v6.49c0,1.05.48,1.58,1.43,1.58a2,2,0,0,0,1.88-1v-7.12h2.68v10h-2.52Z" fill="#2e3191"/>
      <path d="M610.57,183.81a2.91,2.91,0,0,1-.26-.9,3.24,3.24,0,0,1-2.54,1.09,3.55,3.55,0,0,1-2.44-.86,2.72,2.72,0,0,1-1-2.15,2.84,2.84,0,0,1,1.18-2.45,5.79,5.79,0,0,1,3.42-.86h1.23v-.58a1.7,1.7,0,0,0-.35-1.11,1.41,1.41,0,0,0-1.13-.42,1.56,1.56,0,0,0-1.06.33,1.08,1.08,0,0,0-.39.89h-2.68a2.72,2.72,0,0,1,.54-1.62,3.61,3.61,0,0,1,1.52-1.16,5.58,5.58,0,0,1,2.21-.42,4.36,4.36,0,0,1,2.94.93,3.24,3.24,0,0,1,1.09,2.62v4.35a4.82,4.82,0,0,0,.4,2.16v.16ZM608.36,182a2.26,2.26,0,0,0,1.09-.27,1.64,1.64,0,0,0,.74-.71v-1.72h-1c-1.34,0-2.05.46-2.14,1.39v.16a1.07,1.07,0,0,0,.35.82A1.37,1.37,0,0,0,608.36,182Z" fill="#2e3191"/>
      <path d="M617.77,183.81h-2.69V169.56h2.69Z" fill="#2e3191"/>
      <path d="M620,171.18a1.33,1.33,0,0,1,.41-1,1.73,1.73,0,0,1,2.19,0,1.33,1.33,0,0,1,.41,1,1.34,1.34,0,0,1-.41,1,1.53,1.53,0,0,1-1.09.39,1.5,1.5,0,0,1-1.09-.39A1.31,1.31,0,0,1,620,171.18Zm2.85,12.63h-2.69v-10h2.69Z" fill="#2e3191"/>
      <path d="M628.23,171.3v2.47H630v2h-1.72v5a1.22,1.22,0,0,0,.21.8,1.1,1.1,0,0,0,.82.24,3.74,3.74,0,0,0,.79-.07v2a5.59,5.59,0,0,1-1.63.24,2.56,2.56,0,0,1-2.87-2.85v-5.41h-1.47v-2h1.47V171.3Z" fill="#2e3191"/>
      <path d="M635.19,180l1.85-6.25h2.88l-4,11.6-.22.53a3.07,3.07,0,0,1-3,2,4.19,4.19,0,0,1-1.19-.18v-2h.41a2.15,2.15,0,0,0,1.14-.24,1.49,1.49,0,0,0,.59-.77l.31-.82-3.51-10.07h2.88Z" fill="#2e3191"/>
    </g>
    <g>
      <path d="M263.42,131a8.16,8.16,0,0,1-.71,3.5,5.37,5.37,0,0,1-2,2.32,6,6,0,0,1-6,0,5.35,5.35,0,0,1-2-2.31,8,8,0,0,1-.74-3.44v-.67a8.09,8.09,0,0,1,.72-3.51,5.29,5.29,0,0,1,2-2.33,6,6,0,0,1,6,0,5.33,5.33,0,0,1,2,2.33,8,8,0,0,1,.72,3.5Zm-2.82-.61a5.75,5.75,0,0,0-.76-3.23,2.69,2.69,0,0,0-4.33,0,5.59,5.59,0,0,0-.78,3.19V131a5.73,5.73,0,0,0,.77,3.21,2.66,2.66,0,0,0,4.34,0,5.75,5.75,0,0,0,.76-3.2Z" fill="#26e9e0"/>
      <path d="M267.73,127.4l.09,1.16a3.47,3.47,0,0,1,2.88-1.34,2.93,2.93,0,0,1,2.38.93,4.37,4.37,0,0,1,.79,2.8v6.49h-2.68V131a1.74,1.74,0,0,0-.37-1.24,1.65,1.65,0,0,0-1.23-.38,1.85,1.85,0,0,0-1.7,1v7.08h-2.68v-10Z" fill="#26e9e0"/>
      <path d="M283.85,124.93v2.47h1.71v2h-1.71v5a1.24,1.24,0,0,0,.21.8,1.07,1.07,0,0,0,.82.24,4.64,4.64,0,0,0,.79-.07v2a5.59,5.59,0,0,1-1.63.24,2.55,2.55,0,0,1-2.87-2.84v-5.41H279.7v-2h1.47v-2.47Z" fill="#26e9e0"/>
      <path d="M287,124.8a1.31,1.31,0,0,1,.4-1,1.52,1.52,0,0,1,1.1-.39,1.54,1.54,0,0,1,1.1.39,1.31,1.31,0,0,1,.4,1,1.28,1.28,0,0,1-.41,1,1.52,1.52,0,0,1-1.09.39,1.53,1.53,0,0,1-1.09-.39A1.31,1.31,0,0,1,287,124.8Zm2.85,12.64H287.2v-10h2.69Z" fill="#26e9e0"/>
      <path d="M294.61,127.4l.08,1.12a3.54,3.54,0,0,1,2.89-1.3,2.67,2.67,0,0,1,2.66,1.53,3.46,3.46,0,0,1,3-1.53,3,3,0,0,1,2.43.95,4.36,4.36,0,0,1,.79,2.86v6.41h-2.69V131a1.93,1.93,0,0,0-.33-1.25,1.49,1.49,0,0,0-1.18-.39,1.67,1.67,0,0,0-1.67,1.15v6.89h-2.68v-6.39a1.94,1.94,0,0,0-.34-1.26,1.5,1.5,0,0,0-1.17-.39,1.73,1.73,0,0,0-1.65.94v7.1h-2.69v-10Z" fill="#26e9e0"/>
      <path d="M313.16,137.62a4.92,4.92,0,0,1-3.59-1.35,4.8,4.8,0,0,1-1.39-3.61v-.26a6,6,0,0,1,.59-2.7,4.29,4.29,0,0,1,1.65-1.84,4.67,4.67,0,0,1,2.45-.64,4.18,4.18,0,0,1,3.24,1.29,5.29,5.29,0,0,1,1.18,3.69v1.09H310.9a2.54,2.54,0,0,0,.78,1.58,2.41,2.41,0,0,0,1.66.59,2.89,2.89,0,0,0,2.42-1.12l1.32,1.48a4,4,0,0,1-1.64,1.33A5.29,5.29,0,0,1,313.16,137.62Zm-.3-8.24a1.68,1.68,0,0,0-1.3.54,2.76,2.76,0,0,0-.63,1.54h3.73v-.21a2,2,0,0,0-.49-1.38A1.7,1.7,0,0,0,312.86,129.38Z" fill="#26e9e0"/>
      <path d="M319.51,140.83l-1.4-.74.33-.6a4.76,4.76,0,0,0,.64-2.26v-2.07h2.27V137a4.88,4.88,0,0,1-.52,2.08A5.39,5.39,0,0,1,319.51,140.83Z" fill="#26e9e0"/>
      <path d="M332.8,137.62a4.92,4.92,0,0,1-3.59-1.35,4.8,4.8,0,0,1-1.39-3.61v-.26a6,6,0,0,1,.59-2.7,4.29,4.29,0,0,1,1.65-1.84,4.67,4.67,0,0,1,2.45-.64,4.18,4.18,0,0,1,3.24,1.29,5.29,5.29,0,0,1,1.18,3.69v1.09h-6.39a2.54,2.54,0,0,0,.78,1.58,2.41,2.41,0,0,0,1.66.59,2.89,2.89,0,0,0,2.42-1.12l1.32,1.48a4,4,0,0,1-1.63,1.33A5.36,5.36,0,0,1,332.8,137.62Zm-.3-8.24a1.69,1.69,0,0,0-1.3.54,2.76,2.76,0,0,0-.63,1.54h3.73v-.21a2,2,0,0,0-.49-1.38A1.68,1.68,0,0,0,332.5,129.38Z" fill="#26e9e0"/>
      <path d="M342.09,134.16,344,127.4h2.8l-3.39,10h-2.56l-3.39-10h2.81Z" fill="#26e9e0"/>
      <path d="M352.44,137.62a4.93,4.93,0,0,1-3.6-1.35,4.8,4.8,0,0,1-1.39-3.61v-.26a6,6,0,0,1,.59-2.7,4.29,4.29,0,0,1,1.65-1.84,4.67,4.67,0,0,1,2.45-.64,4.18,4.18,0,0,1,3.24,1.29,5.29,5.29,0,0,1,1.18,3.69v1.09h-6.39a2.54,2.54,0,0,0,.78,1.58,2.41,2.41,0,0,0,1.66.59,2.89,2.89,0,0,0,2.42-1.12l1.32,1.48a4,4,0,0,1-1.63,1.33A5.35,5.35,0,0,1,352.44,137.62Zm-.31-8.24a1.69,1.69,0,0,0-1.3.54,2.76,2.76,0,0,0-.63,1.54h3.73v-.21a2,2,0,0,0-.48-1.38A1.72,1.72,0,0,0,352.13,129.38Z" fill="#26e9e0"/>
      <path d="M363.72,129.92a7.14,7.14,0,0,0-1-.08,2,2,0,0,0-2,1v6.57h-2.69v-10h2.54l.07,1.2a2.48,2.48,0,0,1,2.24-1.38,2.82,2.82,0,0,1,.83.12Z" fill="#26e9e0"/>
      <path d="M368.93,133.64l1.85-6.24h2.88l-4,11.6-.23.53a3.06,3.06,0,0,1-3,2,4.43,4.43,0,0,1-1.18-.17v-2h.4a2.16,2.16,0,0,0,1.14-.23,1.49,1.49,0,0,0,.59-.77l.32-.82-3.52-10.07h2.88Z" fill="#26e9e0"/>
      <path d="M382.93,124.93v2.47h1.71v2h-1.71v5a1.24,1.24,0,0,0,.21.8,1.08,1.08,0,0,0,.82.24,4.55,4.55,0,0,0,.79-.07v2a5.59,5.59,0,0,1-1.63.24,2.55,2.55,0,0,1-2.87-2.84v-5.41h-1.47v-2h1.47v-2.47Z" fill="#26e9e0"/>
      <path d="M386.12,124.8a1.31,1.31,0,0,1,.4-1,1.75,1.75,0,0,1,2.2,0,1.32,1.32,0,0,1,.41,1,1.28,1.28,0,0,1-.42,1,1.52,1.52,0,0,1-1.09.39,1.53,1.53,0,0,1-1.09-.39A1.31,1.31,0,0,1,386.12,124.8ZM389,137.44h-2.69v-10H389Z" fill="#26e9e0"/>
      <path d="M393.69,127.4l.08,1.12a3.54,3.54,0,0,1,2.89-1.3,2.67,2.67,0,0,1,2.66,1.53,3.46,3.46,0,0,1,3-1.53,3,3,0,0,1,2.43.95,4.36,4.36,0,0,1,.79,2.86v6.41h-2.69V131a1.93,1.93,0,0,0-.33-1.25,1.48,1.48,0,0,0-1.18-.39,1.67,1.67,0,0,0-1.67,1.15v6.89H397v-6.39a1.88,1.88,0,0,0-.34-1.26,1.5,1.5,0,0,0-1.17-.39,1.73,1.73,0,0,0-1.65.94v7.1h-2.68v-10Z" fill="#26e9e0"/>
      <path d="M412.25,137.62a4.93,4.93,0,0,1-3.6-1.35,4.84,4.84,0,0,1-1.39-3.61v-.26a6,6,0,0,1,.59-2.7,4.29,4.29,0,0,1,1.65-1.84,4.67,4.67,0,0,1,2.45-.64,4.18,4.18,0,0,1,3.24,1.29,5.29,5.29,0,0,1,1.18,3.69v1.09H410a2.5,2.5,0,0,0,.79,1.58,2.37,2.37,0,0,0,1.65.59,2.89,2.89,0,0,0,2.42-1.12l1.32,1.48a4,4,0,0,1-1.63,1.33A5.35,5.35,0,0,1,412.25,137.62Zm-.31-8.24a1.7,1.7,0,0,0-1.3.54,2.76,2.76,0,0,0-.63,1.54h3.73v-.21a2,2,0,0,0-.48-1.38A1.72,1.72,0,0,0,411.94,129.38Z" fill="#26e9e0"/>
    </g>
    <g>
      <path d="M17.44,366.2,20.5,356h3.1l-4.71,13.5H16L11.3,356h3.09Z" fill="#ff6977"/>
      <path d="M28.9,369.73a4.92,4.92,0,0,1-3.59-1.35,4.81,4.81,0,0,1-1.39-3.61v-.26a6.23,6.23,0,0,1,.58-2.71A4.28,4.28,0,0,1,26.16,360a4.67,4.67,0,0,1,2.45-.65,4.15,4.15,0,0,1,3.24,1.3A5.27,5.27,0,0,1,33,364.3v1.1H26.64a2.51,2.51,0,0,0,.78,1.57,2.37,2.37,0,0,0,1.66.6,2.91,2.91,0,0,0,2.42-1.12l1.32,1.47a4,4,0,0,1-1.64,1.33A5.29,5.29,0,0,1,28.9,369.73Zm-.3-8.25a1.68,1.68,0,0,0-1.3.54,2.8,2.8,0,0,0-.63,1.55H30.4v-.21a2,2,0,0,0-.49-1.39A1.7,1.7,0,0,0,28.6,361.48Z" fill="#ff6977"/>
      <path d="M40.19,362a7,7,0,0,0-1-.07,2,2,0,0,0-2,1v6.56H34.55v-10h2.54l.07,1.19a2.48,2.48,0,0,1,2.24-1.38,2.82,2.82,0,0,1,.83.12Z" fill="#ff6977"/>
      <path d="M45.4,365.75l1.85-6.24h2.88l-4,11.59-.22.53a3.07,3.07,0,0,1-3,2,4.19,4.19,0,0,1-1.19-.18v-2h.41a2.26,2.26,0,0,0,1.14-.23,1.53,1.53,0,0,0,.59-.77l.31-.83-3.51-10.06h2.88Z" fill="#ff6977"/>
      <path d="M60.09,367.57a1.77,1.77,0,0,0,1.21-.41,1.41,1.41,0,0,0,.48-1.09H64.3a3.48,3.48,0,0,1-.56,1.87,3.63,3.63,0,0,1-1.5,1.32,4.69,4.69,0,0,1-2.1.47,4.39,4.39,0,0,1-3.4-1.37,5.45,5.45,0,0,1-1.24-3.78v-.18a5.38,5.38,0,0,1,1.23-3.7,4.34,4.34,0,0,1,3.39-1.38,4.24,4.24,0,0,1,3,1.07,3.83,3.83,0,0,1,1.16,2.85H61.78A1.83,1.83,0,0,0,61.3,362a1.79,1.79,0,0,0-2.64.2,3.91,3.91,0,0,0-.48,2.21v.28a4,4,0,0,0,.48,2.23A1.62,1.62,0,0,0,60.09,367.57Z" fill="#ff6977"/>
      <path d="M65.41,364.43a6,6,0,0,1,.57-2.66A4.28,4.28,0,0,1,67.64,360a4.81,4.81,0,0,1,2.51-.64,4.58,4.58,0,0,1,3.32,1.24,5,5,0,0,1,1.43,3.38l0,.69a5.23,5.23,0,0,1-1.29,3.7,5,5,0,0,1-6.93,0,5.36,5.36,0,0,1-1.29-3.79Zm2.68.19a3.73,3.73,0,0,0,.54,2.19,1.93,1.93,0,0,0,3.06,0,4.07,4.07,0,0,0,.55-2.39,3.7,3.7,0,0,0-.55-2.18,1.78,1.78,0,0,0-1.54-.77,1.75,1.75,0,0,0-1.52.77A4.15,4.15,0,0,0,68.09,364.62Z" fill="#ff6977"/>
      <path d="M79.08,359.51l.09,1.12a3.53,3.53,0,0,1,2.88-1.31,2.69,2.69,0,0,1,2.67,1.53,3.44,3.44,0,0,1,3-1.53,3,3,0,0,1,2.43.95,4.39,4.39,0,0,1,.8,2.86v6.41H88.27v-6.4a1.89,1.89,0,0,0-.34-1.25,1.47,1.47,0,0,0-1.17-.39,1.67,1.67,0,0,0-1.67,1.15v6.89H82.41v-6.39a1.88,1.88,0,0,0-.34-1.26,1.5,1.5,0,0,0-1.17-.39,1.74,1.74,0,0,0-1.65.95v7.09H76.57v-10Z" fill="#ff6977"/>
      <path d="M102.06,364.62a6,6,0,0,1-1.06,3.71,3.38,3.38,0,0,1-2.84,1.4,3.1,3.1,0,0,1-2.46-1.06v4.73H93V359.51H95.5l.1,1a3.14,3.14,0,0,1,2.54-1.17,3.39,3.39,0,0,1,2.88,1.37,6.18,6.18,0,0,1,1,3.79Zm-2.69-.2a4,4,0,0,0-.49-2.16,1.62,1.62,0,0,0-1.45-.76,1.75,1.75,0,0,0-1.73,1v4.11a1.78,1.78,0,0,0,1.75,1Q99.37,367.57,99.37,364.42Z" fill="#ff6977"/>
      <path d="M108.34,369.73a4.94,4.94,0,0,1-3.6-1.35,4.85,4.85,0,0,1-1.39-3.61v-.26a6.1,6.1,0,0,1,.59-2.71,4.26,4.26,0,0,1,1.65-1.83,4.67,4.67,0,0,1,2.45-.65,4.15,4.15,0,0,1,3.24,1.3,5.27,5.27,0,0,1,1.18,3.68v1.1h-6.39a2.48,2.48,0,0,0,.79,1.57,2.33,2.33,0,0,0,1.65.6,2.9,2.9,0,0,0,2.42-1.12l1.32,1.47a4,4,0,0,1-1.63,1.33A5.35,5.35,0,0,1,108.34,369.73Zm-.31-8.25a1.67,1.67,0,0,0-1.29.54,2.73,2.73,0,0,0-.64,1.55h3.73v-.21a2,2,0,0,0-.48-1.39A1.72,1.72,0,0,0,108,361.48Z" fill="#ff6977"/>
      <path d="M117.2,357v2.47h1.71v2H117.2v5a1.22,1.22,0,0,0,.21.8,1.07,1.07,0,0,0,.82.24,4.58,4.58,0,0,0,.78-.06v2a5.48,5.48,0,0,1-1.62.24,2.56,2.56,0,0,1-2.88-2.85v-5.41h-1.46v-2h1.46V357Z" fill="#ff6977"/>
      <path d="M120.39,356.91a1.31,1.31,0,0,1,.4-1,1.52,1.52,0,0,1,1.1-.39,1.5,1.5,0,0,1,1.09.39,1.28,1.28,0,0,1,.41,1,1.33,1.33,0,0,1-.41,1,1.53,1.53,0,0,1-1.09.39,1.52,1.52,0,0,1-1.09-.39A1.29,1.29,0,0,1,120.39,356.91Zm2.84,12.63h-2.69v-10h2.69Z" fill="#ff6977"/>
      <path d="M128.65,357v2.47h1.72v2h-1.72v5a1.16,1.16,0,0,0,.22.8,1.06,1.06,0,0,0,.81.24,4.62,4.62,0,0,0,.79-.06v2a5.58,5.58,0,0,1-1.62.24,2.56,2.56,0,0,1-2.88-2.85v-5.41h-1.46v-2H126V357Z" fill="#ff6977"/>
      <path d="M131.84,356.91a1.32,1.32,0,0,1,.41-1,1.73,1.73,0,0,1,2.19,0,1.41,1.41,0,0,1,0,2,1.53,1.53,0,0,1-1.09.39,1.5,1.5,0,0,1-1.09-.39A1.3,1.3,0,0,1,131.84,356.91Zm2.85,12.63H132v-10h2.69Z" fill="#ff6977"/>
      <path d="M140.66,366.27l1.86-6.76h2.8l-3.38,10h-2.56l-3.39-10h2.8Z" fill="#ff6977"/>
      <path d="M151,369.73a4.92,4.92,0,0,1-3.59-1.35,4.81,4.81,0,0,1-1.39-3.61v-.26a6.23,6.23,0,0,1,.58-2.71,4.28,4.28,0,0,1,1.66-1.83,4.67,4.67,0,0,1,2.45-.65,4.15,4.15,0,0,1,3.24,1.3,5.27,5.27,0,0,1,1.18,3.68v1.1h-6.39a2.47,2.47,0,0,0,.78,1.57,2.37,2.37,0,0,0,1.66.6,2.91,2.91,0,0,0,2.42-1.12l1.32,1.47a4,4,0,0,1-1.64,1.33A5.29,5.29,0,0,1,151,369.73Zm-.3-8.25a1.68,1.68,0,0,0-1.3.54,2.8,2.8,0,0,0-.63,1.55h3.73v-.21A2,2,0,0,0,152,362,1.7,1.7,0,0,0,150.7,361.48Z" fill="#ff6977"/>
      <path d="M167,362a7,7,0,0,0-1-.07,2,2,0,0,0-2,1v6.56h-2.68v-10h2.54l.07,1.19a2.48,2.48,0,0,1,2.24-1.38,2.82,2.82,0,0,1,.83.12Z" fill="#ff6977"/>
      <path d="M173.85,369.54a3.2,3.2,0,0,1-.27-.9,3.22,3.22,0,0,1-2.53,1.09,3.54,3.54,0,0,1-2.44-.85,2.74,2.74,0,0,1-1-2.16,2.84,2.84,0,0,1,1.18-2.45,5.94,5.94,0,0,1,3.42-.86h1.23v-.57a1.66,1.66,0,0,0-.36-1.12,1.41,1.41,0,0,0-1.12-.41,1.56,1.56,0,0,0-1.06.32,1.1,1.1,0,0,0-.39.89h-2.68a2.67,2.67,0,0,1,.54-1.61,3.49,3.49,0,0,1,1.52-1.17,5.55,5.55,0,0,1,2.21-.42,4.37,4.37,0,0,1,2.94.93,3.26,3.26,0,0,1,1.09,2.62v4.35a4.87,4.87,0,0,0,.4,2.17v.15Zm-2.22-1.86a2.38,2.38,0,0,0,1.1-.26,1.81,1.81,0,0,0,.74-.71V365h-1c-1.34,0-2.06.46-2.14,1.39v.16a1.07,1.07,0,0,0,.35.82A1.35,1.35,0,0,0,171.63,367.68Z" fill="#ff6977"/>
      <path d="M181.43,357v2.47h1.72v2h-1.72v5a1.22,1.22,0,0,0,.21.8,1.1,1.1,0,0,0,.82.24,4.62,4.62,0,0,0,.79-.06v2a5.58,5.58,0,0,1-1.62.24,2.56,2.56,0,0,1-2.88-2.85v-5.41h-1.47v-2h1.47V357Z" fill="#ff6977"/>
      <path d="M189.26,369.73a4.92,4.92,0,0,1-3.59-1.35,4.81,4.81,0,0,1-1.39-3.61v-.26a6.23,6.23,0,0,1,.58-2.71,4.28,4.28,0,0,1,1.66-1.83,4.65,4.65,0,0,1,2.45-.65,4.15,4.15,0,0,1,3.24,1.3,5.27,5.27,0,0,1,1.18,3.68v1.1H187a2.47,2.47,0,0,0,.78,1.57,2.37,2.37,0,0,0,1.66.6,2.91,2.91,0,0,0,2.42-1.12l1.32,1.47a4.08,4.08,0,0,1-1.64,1.33A5.29,5.29,0,0,1,189.26,369.73Zm-.3-8.25a1.68,1.68,0,0,0-1.3.54,2.8,2.8,0,0,0-.63,1.55h3.73v-.21a2,2,0,0,0-.49-1.39A1.71,1.71,0,0,0,189,361.48Z" fill="#ff6977"/>
      <path d="M200.35,366.77a.84.84,0,0,0-.49-.77,5.41,5.41,0,0,0-1.56-.51c-2.39-.5-3.58-1.52-3.58-3a2.76,2.76,0,0,1,1.1-2.23,4.47,4.47,0,0,1,2.9-.9,4.8,4.8,0,0,1,3.06.9,2.85,2.85,0,0,1,1.15,2.34h-2.68a1.3,1.3,0,0,0-.38-.95,1.93,1.93,0,0,0-2.2-.07,1,1,0,0,0-.37.78.85.85,0,0,0,.42.72,4.28,4.28,0,0,0,1.42.47,10.94,10.94,0,0,1,1.69.45,2.77,2.77,0,0,1,2.12,2.7,2.63,2.63,0,0,1-1.17,2.22,5.07,5.07,0,0,1-3.05.85,5.3,5.3,0,0,1-2.24-.45,3.76,3.76,0,0,1-1.53-1.23,2.91,2.91,0,0,1-.56-1.7h2.54a1.43,1.43,0,0,0,.53,1.1,2.13,2.13,0,0,0,1.32.38,2,2,0,0,0,1.16-.29A.91.91,0,0,0,200.35,366.77Z" fill="#ff6977"/>
    </g>
    <line x1="207.7" y1="136.06" x2="262.97" y2="191.32" fill="none" stroke="#ffc000" stroke-miterlimit="10"/>
    <line x1="211.04" y1="280.98" x2="231.71" y2="280.98" fill="none" stroke="#ff6977" stroke-miterlimit="10"/>
    <line x1="469.09" y1="281.48" x2="428.32" y2="275.38" fill="none" stroke="#00a551" stroke-miterlimit="10"/>
    <line x1="460.24" y1="148.8" x2="419.9" y2="179.93" fill="none" stroke="#2e3191" stroke-miterlimit="10"/>
    <line x1="331.49" y1="164.36" x2="331.49" y2="148.8" fill="none" stroke="#26e9e0" stroke-miterlimit="10"/>
    <g>
      <path d="M352.21,48.42l1.92-1.92a2.19,2.19,0,0,0,0-3l-4.27-4.27a2.19,2.19,0,0,0-3,0l-1.92,1.92a24.46,24.46,0,0,0-10.83-3.9v-4h3.46a2.63,2.63,0,1,0,0-5.26H325.29a2.66,2.66,0,0,0,0,5.32h3.47v4a24.5,24.5,0,0,0-12.94,5.38,2.64,2.64,0,0,0,3.34,4.09,19.24,19.24,0,0,1,12.26-4.33,19.53,19.53,0,1,1-19.5,20.23h2.85a1.79,1.79,0,0,0,1.48-2.78l-5.57-8.29a1.78,1.78,0,0,0-3,0l-5.57,8.29a1.79,1.79,0,0,0,1.49,2.78h2.91A24.82,24.82,0,0,0,356.17,62,24.11,24.11,0,0,0,352.21,48.42Z" fill="#fff"/>
      <path d="M331.42,77.07a15.1,15.1,0,0,0,0-30.2,1.25,1.25,0,0,0-1.24,1.24V61.48L320,70.14a1.29,1.29,0,0,0-.43.81.92.92,0,0,0,.31.86A15.14,15.14,0,0,0,331.42,77.07Z" fill="#fff"/>
    </g>
    <path d="M156.83,77.74a22.81,22.81,0,1,0,22.81,22.81A22.82,22.82,0,0,0,156.83,77.74ZM149.49,92.3a3.49,3.49,0,1,1-3.5,3.49A3.51,3.51,0,0,1,149.49,92.3Zm14.68,0a3.49,3.49,0,1,1-3.48,3.49A3.51,3.51,0,0,1,164.17,92.3Zm3.1,14.1a1,1,0,0,1,1.1,1,1.06,1.06,0,0,1-.2.67,13.18,13.18,0,0,1-22.69,0,1,1,0,0,1,.29-1.45.93.93,0,0,1,.48-.17h.12a1,1,0,0,1,.86.49,11.12,11.12,0,0,0,19.19,0A1,1,0,0,1,167.27,106.4Z" fill="#fff" fill-rule="evenodd"/>
    <path d="M144.87,257.87a3.79,3.79,0,0,0-1.32.29c-1.75.73-2.57,2.34-3.52,3.88a37.07,37.07,0,0,1-2.32,3.53,39,39,0,0,1-3.58,2.35c-1.54,1-3.16,1.8-3.89,3.55s-.17,3.49.26,5.23a34.23,34.23,0,0,1,.9,4.08,35.28,35.28,0,0,1-.91,4.19c-.44,1.79-1,3.53-.3,5.32s2.35,2.58,3.9,3.52a36,36,0,0,1,3.54,2.3,36.46,36.46,0,0,1,2.29,3.6c.94,1.57,1.75,3.21,3.52,4a5.17,5.17,0,0,0,2.63.25,21.94,21.94,0,0,0,2.7-.49,37.26,37.26,0,0,1,4.23-.88,33.4,33.4,0,0,1,4.12.91c1.75.43,3.47,1,5.23.29s2.59-2.35,3.54-3.89a35,35,0,0,1,2.32-3.55A34.58,34.58,0,0,1,171.8,294c1.57-.94,3.22-1.74,4-3.51s.16-3.51-.28-5.29a36.25,36.25,0,0,1-.9-4.17,39.67,39.67,0,0,1,.93-4.22,21.76,21.76,0,0,0,.52-2.7,5.1,5.1,0,0,0-.22-2.64c-.74-1.77-2.38-2.6-3.94-3.56a36.65,36.65,0,0,1-3.59-2.34,37.18,37.18,0,0,1-2.31-3.51c-.94-1.53-1.77-3.12-3.5-3.85s-3.48-.18-5.23.23a34.5,34.5,0,0,1-4.13.87,37.33,37.33,0,0,1-4.23-.9,20.31,20.31,0,0,0-2.7-.51A7.3,7.3,0,0,0,144.87,257.87ZM145,271a5.15,5.15,0,1,1-5.15,5.14A5.16,5.16,0,0,1,145,271Zm12.25.33a1.46,1.46,0,0,1,1.44,1.46,1.55,1.55,0,0,1-.21.73L150,288.25a1.45,1.45,0,1,1-2.54-1.4l0-.05L156,272.06A1.46,1.46,0,0,1,157.26,271.31ZM145,273.88a2.25,2.25,0,1,0,2.25,2.24A2.22,2.22,0,0,0,145,273.88ZM161,280.69a5.15,5.15,0,1,1-5.14,5.15A5.17,5.17,0,0,1,161,280.69Zm0,2.89a2.25,2.25,0,1,0,2.25,2.26A2.23,2.23,0,0,0,161,283.58Z" fill="#fff"/>
    <g>
      <rect x="507.12" y="270.57" width="39.68" height="38.72" rx="3.35" stroke-width="3" stroke="#fff" stroke-linecap="round" stroke-linejoin="round" fill="none"/>
      <line x1="507.12" y1="282.36" x2="546.81" y2="282.36" fill="none" stroke="#fff" stroke-linecap="round" stroke-linejoin="round" stroke-width="3"/>
      <line x1="515.49" y1="266.76" x2="515.49" y2="274.71" fill="none" stroke="#fff" stroke-linecap="round" stroke-linejoin="round" stroke-width="3"/>
      <line x1="538.5" y1="266.76" x2="538.5" y2="274.71" fill="none" stroke="#fff" stroke-linecap="round" stroke-linejoin="round" stroke-width="3"/>
      <path d="M540.41,301.5a1.88,1.88,0,0,1-1.9,1.78h-4.75a1.89,1.89,0,0,1-1.8-1.78h0v-4.86a1.78,1.78,0,0,1,1.76-1.78h4.89a1.78,1.78,0,0,1,1.89,1.66v.12h0Z" fill="none" stroke="#fff" stroke-linecap="round" stroke-linejoin="round" stroke-width="3"/>
    </g>
    <g>
      <path d="M516,126.47l-3.11,1a4.45,4.45,0,0,1-.88.13,2.84,2.84,0,0,1-2.54-1.52l-1.46-2.92-1.2-.12-6.15,13.11a1.33,1.33,0,0,0,1.46,1.9l4.44-.82a1.3,1.3,0,0,1,1.45.7l2.16,4a1.38,1.38,0,0,0,2.41-.06l6.14-13.06c-.06-.06-.13-.06-.19-.12Z" fill="#fff"/>
      <path d="M533.91,123.05l-1.27.12-1.46,2.92a2.84,2.84,0,0,1-2.53,1.52,4.55,4.55,0,0,1-.89-.13l-3.11-1-2.47,2.09c-.06.06-.12.13-.19.13l6.15,13.05a1.33,1.33,0,0,0,2.41.06l2.22-4a1.5,1.5,0,0,1,1.45-.7l4.44.83a1.34,1.34,0,0,0,1.46-1.9Z" fill="#fff"/>
      <path d="M520.35,91.81a12.93,12.93,0,1,0,12.92,12.92A12.94,12.94,0,0,0,520.35,91.81Zm7.41,10.83-3,3.17a.46.46,0,0,0-.13.38l.51,4.31a.5.5,0,0,1-.7.51l-3.92-1.84a.42.42,0,0,0-.38,0L516.23,111c-.32.19-.7-.13-.7-.51l.51-4.31a.46.46,0,0,0-.13-.38l-3-3.17a.5.5,0,0,1,.26-.82l4.24-.82c.13,0,.25-.13.32-.26l2.09-3.8a.47.47,0,0,1,.82,0l2.09,3.8a.69.69,0,0,0,.32.26l4.25.82C527.82,101.88,528,102.33,527.76,102.64Z" fill="#fff"/>
      <path d="M542.52,105.18a.61.61,0,0,0,0-.89l-2.66-3.1a.68.68,0,0,1-.12-.7L541,96.62a.69.69,0,0,0-.31-.82L537.07,94a.71.71,0,0,1-.38-.57l-.31-4a.69.69,0,0,0-.64-.64l-4.12-.31a.74.74,0,0,1-.57-.38l-1.83-3.62a.64.64,0,0,0-.83-.31l-3.86,1.26a.88.88,0,0,1-.7-.12l-3.1-2.66a.61.61,0,0,0-.89,0l-3,2.66a.68.68,0,0,1-.7.12l-3.86-1.26a.7.7,0,0,0-.83.31L509.57,88a.71.71,0,0,1-.57.38L505,88.7a.69.69,0,0,0-.64.64l-.31,4a.71.71,0,0,1-.38.57L500,95.8a.62.62,0,0,0-.32.82l1.27,3.87a.89.89,0,0,1-.13.7l-2.66,3.1a.61.61,0,0,0,0,.89l2.66,3.1a.71.71,0,0,1,.13.7l-1.27,3.86a.69.69,0,0,0,.32.83l3.61,1.84a.71.71,0,0,1,.38.57l.31,4a.69.69,0,0,0,.64.64l4.05.31a.71.71,0,0,1,.57.38l1.84,3.61a.63.63,0,0,0,.83.32l3.86-1.27a.89.89,0,0,1,.7.13l3.1,2.66a.62.62,0,0,0,.89,0l3.1-2.66a.71.71,0,0,1,.7-.13l3.87,1.27a.68.68,0,0,0,.82-.32l1.84-3.61a.71.71,0,0,1,.57-.38l4-.31a.69.69,0,0,0,.64-.64l.31-4a.71.71,0,0,1,.38-.57l3.62-1.84a.64.64,0,0,0,.31-.83L539.74,109a.89.89,0,0,1,.12-.7Zm-22.17,14.63a15.08,15.08,0,1,1,15.08-15.08A15.12,15.12,0,0,1,520.35,119.81Z" fill="#fff"/>
    </g>
  </g>
</svg>
