<svg xmlns="http://www.w3.org/2000/svg" width="849.93" height="528.48" viewBox="0 0 849.93 528.48">
  <title>sp-bg</title>
  <g id="Layer_1" data-name="Layer 1">
    <g>
      <path d="M785.63,53.16,740.72,79.09c-14.79,8.53-14.87,22.36-.18,30.9s38.56,8.53,53.34,0l44.91-25.93c14.79-8.53,14.86-22.36.19-30.89s-38.57-8.54-53.35,0" style="fill: #3f39c7"/>
      <path d="M237.36,123.16,197,146.46c-14.79,8.53-14.86,22.37-.18,30.9s14.61,22.36-.17,30.9L48.76,293.65C34,302.18,33.89,316,48.57,324.55s14.61,22.37-.16,30.9L11.14,377c-14.78,8.53-14.87,22.37-.18,30.91s38.57,8.52,53.34,0l83.54-48.23c13.69-7.91,37.32-8.74,51.86-1.42,16.71,8.4,17.3,23.09,1.87,32L155.7,416.69c-14.78,8.53-14.86,22.37-.18,30.9s14.6,22.36-.17,30.89l-22,12.7c-14.77,8.53-14.85,22.37-.17,30.9s38.57,8.53,53.35,0L224.76,500c14.79-8.54,38.66-8.54,53.35,0s38.56,8.53,53.34,0L367.92,479c13.07-7.55,34.19-7.54,47.17,0l6.16,3.58c13,7.54,34.09,7.54,47.17,0l65.95-38.08c13.06-7.54,13.13-19.78.15-27.32l-6.16-3.58c-13-7.54-12.92-19.78.15-27.32L838.44,207.29c14.77-8.53,14.85-22.36.17-30.89s-38.56-8.53-53.34,0L656.59,250.69c-14.78,8.54-38.66,8.54-53.35,0s-14.61-22.36.18-30.9l115-66.4c14.78-8.53,14.85-22.36.18-30.89s-38.57-8.53-53.34,0l-49.48,28.57c-13.69,7.9-37.3,8.73-51.86,1.41-16.69-8.4-17.3-23.09-1.86-32l5.57-3.22c14.78-8.53,14.86-22.36.18-30.89S553.2,64,568,55.47l31.48-18.18c14.78-8.53,14.86-22.36.17-30.89s-38.56-8.53-53.33,0L344.05,123.17c-14.78,8.53-38.66,8.52-53.34,0s-38.57-8.53-53.35,0" style="fill: #3f39c7"/>
      <path d="M716.08,302.58,591.9,374.28c-14.79,8.54-14.86,22.37-.19,30.9s38.57,8.53,53.35,0l124.19-71.7c14.77-8.53,14.85-22.36.16-30.9s-38.55-8.53-53.33,0" style="fill: #3f39c7"/>
    </g>
  </g>
</svg>
