<svg id="Layer_1" data-name="Layer 1" xmlns="http://www.w3.org/2000/svg" xmlns:xlink="http://www.w3.org/1999/xlink" width="24.09" height="22.72" viewBox="0 0 24.09 22.72">
  <defs>
    <linearGradient id="linear-gradient" x1="0.31" y1="14.61" x2="14.34" y2="14.61" gradientUnits="userSpaceOnUse">
      <stop offset="0" stop-color="#fff"/>
      <stop offset="1" stop-color="#e5e7eb"/>
    </linearGradient>
    <linearGradient id="linear-gradient-2" x1="4.34" y1="12.53" x2="24.39" y2="12.53" xlink:href="#linear-gradient"/>
    <linearGradient id="linear-gradient-3" x1="1.88" y1="5.67" x2="19.58" y2="5.67" xlink:href="#linear-gradient"/>
  </defs>
  <title>logo-white</title>
  <g>
    <path d="M5.12,15.51a12.47,12.47,0,0,1-.62-6.37L1.43,6.06a12.19,12.19,0,0,0-.33,9.45,11.4,11.4,0,0,0,6.8,6.86,12.71,12.71,0,0,0,6.44.63,13.6,13.6,0,0,1-2.41-.63A11.4,11.4,0,0,1,5.12,15.51Z" transform="translate(-0.31 -0.44)" fill="url(#linear-gradient)"/>
    <path d="M22.17,4.18a12.12,12.12,0,0,0-1.9-2.12L17.36,5a7.93,7.93,0,0,1-3,13.85,7.93,7.93,0,0,1-9.88-6.57,7.91,7.91,0,0,1,.16-3l-.12-.12a12.47,12.47,0,0,0,.62,6.37,11.4,11.4,0,0,0,6.8,6.86,13.6,13.6,0,0,0,2.41.63A12,12,0,0,0,22.17,4.18Z" transform="translate(-0.31 -0.44)" fill="url(#linear-gradient-2)"/>
    <path d="M19,1.08a3.88,3.88,0,0,0-4.88.5L12.52,3.17,11.64,4,9.52,6.17a1,1,0,0,1-1.39,0l-1-1-.82-.82a2.67,2.67,0,0,0-4.15.44l-.25.45L6.72,9.89a2.88,2.88,0,0,0,4.18.2l5.73-5.65,3-2.91Z" transform="translate(-0.31 -0.44)" fill="url(#linear-gradient-3)"/>
  </g>
  <polygon points="12.04 9.64 20.95 0.03 22.55 3.63 13.35 10.38 12.04 9.64" fill="#131924" opacity="0.21" style="isolation: isolate"/>
</svg>
